<svg width="14" height="16" viewBox="0 0 14 16" fill="none" xmlns="http://www.w3.org/2000/svg">
<path d="M12.3333 12.25H12.5833V12V4.66667V4.41667H12.3333H9.25V1.33333V1.08333H9H4.33334H4.08334V1.33333V12V12.25H4.33334H12.3333ZM1.66667 14.9167H12.0833V15.75H1.66667C1.07141 15.75 0.583336 15.2619 0.583336 14.6667V2.91667H1.41667V14.6667V14.9167H1.66667ZM4.33334 0.25H9.56312L13.4167 4.10355V12C13.4167 12.5953 12.9286 13.0833 12.3333 13.0833H4.33334C3.73807 13.0833 3.25 12.5953 3.25 12V1.33333C3.25 0.738071 3.73807 0.25 4.33334 0.25ZM10.75 7.75H5.91667V6.91667H10.75V7.75ZM8.75 10.4167H5.91667V9.58333H8.75V10.4167Z" stroke="white" stroke-width="0.5"/>
</svg>
