<svg width="10" height="11" viewBox="0 0 10 11" fill="none" xmlns="http://www.w3.org/2000/svg">
<path d="M5.65 1C5.65 0.641015 5.35899 0.35 5 0.35C4.64101 0.35 4.35 0.641015 4.35 1L5.65 1ZM4.54038 10.4596C4.79422 10.7135 5.20578 10.7135 5.45962 10.4596L9.59619 6.32304C9.85003 6.0692 9.85003 5.65765 9.59619 5.40381C9.34235 5.14997 8.9308 5.14997 8.67696 5.40381L5 9.08076L1.32304 5.40381C1.0692 5.14997 0.657647 5.14997 0.403806 5.40381C0.149965 5.65765 0.149966 6.0692 0.403806 6.32304L4.54038 10.4596ZM4.35 1L4.35 10L5.65 10L5.65 1L4.35 1Z" fill="url(#paint0_linear_1_631)"/>
<defs>
<linearGradient id="paint0_linear_1_631" x1="5.5" y1="1" x2="5.5" y2="10" gradientUnits="userSpaceOnUse">
<stop stop-color="#07A756"/>
<stop offset="1" stop-color="#08EA79"/>
</linearGradient>
</defs>
</svg>
